<?xml version="1.0" encoding="UTF-8"?>
<!DOCTYPE svg PUBLIC "-//W3C//DTD SVG 1.1//EN" "http://www.w3.org/Graphics/SVG/1.1/DTD/svg11.dtd">
<svg xmlns="http://www.w3.org/2000/svg" version="1.1" width="1338px" height="196px" style="shape-rendering:geometricPrecision; text-rendering:geometricPrecision; image-rendering:optimizeQuality; fill-rule:evenodd; clip-rule:evenodd" xmlns:xlink="http://www.w3.org/1999/xlink">
<g><path style="opacity:0.932" fill="#e41936" d="M 1125.5,-0.5 C 1139.5,-0.5 1153.5,-0.5 1167.5,-0.5C 1181.04,2.8818 1186.21,11.5485 1183,25.5C 1180.22,35.4449 1173.72,41.4449 1163.5,43.5C 1169.04,54.0797 1174.71,64.5797 1180.5,75C 1174.83,75.6667 1169.17,75.6667 1163.5,75C 1158.37,65.2446 1153.37,55.4113 1148.5,45.5C 1143.54,44.5059 1138.54,44.1725 1133.5,44.5C 1132.28,54.8476 1130.94,65.1809 1129.5,75.5C 1124.5,75.5 1119.5,75.5 1114.5,75.5C 1118.6,50.2312 1122.27,24.8979 1125.5,-0.5 Z M 1138.5,10.5 C 1146.51,10.3336 1154.51,10.5003 1162.5,11C 1167.55,11.5967 1169.88,14.43 1169.5,19.5C 1169.1,28.3981 1164.44,33.2315 1155.5,34C 1148.84,34.4996 1142.17,34.6663 1135.5,34.5C 1136.69,26.5249 1137.69,18.5249 1138.5,10.5 Z"/></g>
<g><path style="opacity:0.878" fill="#e41936" d="M 1203.5,5.5 C 1208.17,5.5 1212.83,5.5 1217.5,5.5C 1217.73,8.24919 1217.39,10.9159 1216.5,13.5C 1211.67,16.7516 1206.67,19.7516 1201.5,22.5C 1201.17,22.1667 1200.83,21.8333 1200.5,21.5C 1201.69,16.1946 1202.69,10.8612 1203.5,5.5 Z"/></g>
<g><path style="opacity:0.926" fill="#e41936" d="M 1214.5,18.5 C 1215.15,19.4486 1215.49,20.6153 1215.5,22C 1212.88,39.8509 1210.21,57.6843 1207.5,75.5C 1202.46,75.8275 1197.46,75.4941 1192.5,74.5C 1195.32,58.9022 1197.82,43.2355 1200,27.5C 1204.98,24.6002 1209.81,21.6002 1214.5,18.5 Z"/></g>
<g><path style="opacity:0.937" fill="#e41936" d="M 1337.5,32.5 C 1337.5,35.1667 1337.5,37.8333 1337.5,40.5C 1336.46,45.3951 1333.79,49.2284 1329.5,52C 1319.58,53.4234 1309.58,53.9234 1299.5,53.5C 1299.34,56.5184 1299.5,59.5184 1300,62.5C 1300.5,63 1301,63.5 1301.5,64C 1311.78,65.0948 1322.11,65.9281 1332.5,66.5C 1330.83,69.1667 1329.17,71.8333 1327.5,74.5C 1317.18,75.6656 1306.85,75.8323 1296.5,75C 1290.55,73.3868 1287.05,69.5535 1286,63.5C 1284.84,51.0763 1287.17,39.4097 1293,28.5C 1296.02,24.9083 1299.85,22.7416 1304.5,22C 1311.5,21.3333 1318.5,21.3333 1325.5,22C 1331.47,23.4508 1335.47,26.9508 1337.5,32.5 Z M 1309.5,31.5 C 1313.6,31.2338 1317.6,31.7338 1321.5,33C 1323.71,35.6628 1323.71,38.4961 1321.5,41.5C 1320.09,42.8064 1318.42,43.6397 1316.5,44C 1311.51,44.4993 1306.51,44.6659 1301.5,44.5C 1300.93,37.9294 1303.6,33.5961 1309.5,31.5 Z"/></g>
<g><path style="opacity:0.934" fill="#e41936" d="M 1236.5,22.5 C 1249.84,22.3334 1263.17,22.5001 1276.5,23C 1274.5,26 1272.5,29 1270.5,32C 1262.17,32.3333 1253.83,32.6667 1245.5,33C 1242.05,34.8964 1241.72,37.2297 1244.5,40C 1252.12,42.1559 1259.79,44.1559 1267.5,46C 1276.98,51.0698 1279.48,58.5698 1275,68.5C 1273.06,71.7337 1270.22,73.9003 1266.5,75C 1251.5,75.6667 1236.5,75.6667 1221.5,75C 1223.5,72 1225.5,69 1227.5,66C 1237.5,65.6667 1247.5,65.3333 1257.5,65C 1263.92,61.5359 1263.92,58.2025 1257.5,55C 1249.79,53.1559 1242.12,51.1559 1234.5,49C 1227.86,44.9834 1225.7,39.1501 1228,31.5C 1229.69,27.3148 1232.52,24.3148 1236.5,22.5 Z"/></g>
<g><path style="opacity:0.897" fill="#e41936" d="M 530.5,57.5 C 539.167,57.5 547.833,57.5 556.5,57.5C 556.666,62.8437 556.499,68.1771 556,73.5C 547.804,78.8455 539.304,83.5122 530.5,87.5C 530.5,77.5 530.5,67.5 530.5,57.5 Z"/></g>
<g><path style="opacity:0.995" fill="#e41936" d="M 398.5,195.5 C 390.167,195.5 381.833,195.5 373.5,195.5C 373.5,149.833 373.5,104.167 373.5,58.5C 381.833,58.5 390.167,58.5 398.5,58.5C 398.5,104.167 398.5,149.833 398.5,195.5 Z"/></g>
<g><path style="opacity:0.955" fill="#e41936" d="M 867.5,195.5 C 829.167,195.5 790.833,195.5 752.5,195.5C 743.18,193.678 737.68,188.012 736,178.5C 735.333,159.833 735.333,141.167 736,122.5C 738.256,107.576 746.756,98.4095 761.5,95C 784.84,94.1669 808.174,94.3335 831.5,95.5C 828.9,101.866 825.9,108.032 822.5,114C 806.833,114.333 791.167,114.667 775.5,115C 768.667,116.157 764.167,119.99 762,126.5C 761.333,141.833 761.333,157.167 762,172.5C 762.5,173 763,173.5 763.5,174C 789.498,174.5 815.498,174.667 841.5,174.5C 841.5,135.833 841.5,97.1667 841.5,58.5C 850.167,58.5 858.833,58.5 867.5,58.5C 867.5,104.167 867.5,149.833 867.5,195.5 Z"/></g>
<g><path style="opacity:0.94" fill="#e41936" d="M 556.5,195.5 C 547.833,195.5 539.167,195.5 530.5,195.5C 530.167,163.826 530.5,132.16 531.5,100.5C 539.5,95.8333 547.5,91.1667 555.5,86.5C 556.5,122.827 556.833,159.161 556.5,195.5 Z"/></g>
<g><path style="opacity:0.959" fill="#e41936" d="M -0.5,94.5 C 55.501,94.3333 111.501,94.5 167.5,95C 180.898,98.0649 189.398,106.232 193,119.5C 193.5,144.831 193.667,170.164 193.5,195.5C 184.833,195.5 176.167,195.5 167.5,195.5C 167.667,172.164 167.5,148.831 167,125.5C 165.167,121 162,117.833 157.5,116C 149.392,114.899 141.226,114.399 133,114.5C 126.167,114.667 119.333,114.833 112.5,115C 111.584,115.374 110.75,115.874 110,116.5C 109.5,142.831 109.333,169.165 109.5,195.5C 100.833,195.5 92.1667,195.5 83.5,195.5C 83.6666,169.165 83.5,142.831 83,116.5C 82.2496,115.874 81.4162,115.374 80.5,115C 63.1667,114.333 45.8333,114.333 28.5,115C 27.5838,115.374 26.7504,115.874 26,116.5C 25.5,142.831 25.3334,169.165 25.5,195.5C 16.8333,195.5 8.16667,195.5 -0.5,195.5C -0.5,161.833 -0.5,128.167 -0.5,94.5 Z"/></g>
<g><path style="opacity:0.959" fill="#e41936" d="M 348.5,195.5 C 309.167,195.5 269.833,195.5 230.5,195.5C 223.433,193.612 218.266,189.279 215,182.5C 214.333,170.5 214.333,158.5 215,146.5C 216.963,140.269 221.13,136.436 227.5,135C 250.5,134.333 273.5,134.333 296.5,135C 294.438,139.791 292.105,144.457 289.5,149C 273.167,149.333 256.833,149.667 240.5,150C 240,150.5 239.5,151 239,151.5C 238.333,158.5 238.333,165.5 239,172.5C 239.5,173 240,173.5 240.5,174C 267.831,174.5 295.165,174.667 322.5,174.5C 322.667,158.163 322.5,141.83 322,125.5C 319.549,119.384 315.049,115.884 308.5,115C 282.494,114.833 256.494,114.333 230.5,113.5C 233.644,107.379 236.644,101.212 239.5,95C 267.167,94.3333 294.833,94.3333 322.5,95C 336.333,98.1667 344.833,106.667 348,120.5C 348.5,145.498 348.667,170.498 348.5,195.5 Z"/></g>
<g><path style="opacity:0.957" fill="#e41936" d="M 501.5,195.5 C 492.833,195.5 484.167,195.5 475.5,195.5C 475.667,172.498 475.5,149.498 475,126.5C 472.974,119.81 468.474,115.977 461.5,115C 443.491,114.833 425.491,114.333 407.5,113.5C 410.1,107.134 413.1,100.968 416.5,95C 426.333,94.8333 436.167,94.6667 446,94.5C 457.221,94.3787 468.388,94.8787 479.5,96C 491.734,100.234 498.901,108.734 501,121.5C 501.5,146.164 501.667,170.831 501.5,195.5 Z"/></g>
<g><path style="opacity:0.97" fill="#e41936" d="M 712.5,195.5 C 703.833,195.5 695.167,195.5 686.5,195.5C 686.667,172.498 686.5,149.498 686,126.5C 683.794,119.979 679.294,116.146 672.5,115C 652.169,114.5 631.836,114.333 611.5,114.5C 611.5,141.5 611.5,168.5 611.5,195.5C 603.167,195.5 594.833,195.5 586.5,195.5C 586.5,161.833 586.5,128.167 586.5,94.5C 619.835,94.3333 653.168,94.5 686.5,95C 701.69,98.5231 710.19,108.023 712,123.5C 712.5,147.498 712.667,171.498 712.5,195.5 Z"/></g>
<g><path style="opacity:0.956" fill="#e41936" d="M 927.5,195.5 C 918.833,195.5 910.167,195.5 901.5,195.5C 901.333,170.164 901.5,144.831 902,119.5C 905.576,106.259 914.076,98.0919 927.5,95C 950.164,94.5 972.831,94.3334 995.5,94.5C 993.193,101.282 990.193,107.782 986.5,114C 971.5,114.333 956.5,114.667 941.5,115C 934.951,115.884 930.451,119.384 928,125.5C 927.5,148.831 927.333,172.164 927.5,195.5 Z"/></g>
<g><path style="opacity:0.958" fill="#e41936" d="M 1120.5,195.5 C 1081.17,195.5 1041.83,195.5 1002.5,195.5C 995.019,193.525 989.852,188.858 987,181.5C 986.333,170.167 986.333,158.833 987,147.5C 989.167,141.333 993.333,137.167 999.5,135C 1022.51,134.167 1045.51,134.334 1068.5,135.5C 1065.93,139.967 1063.93,144.633 1062.5,149.5C 1046.16,149.333 1029.83,149.5 1013.5,150C 1012.33,150.5 1011.5,151.333 1011,152.5C 1010.33,158.833 1010.33,165.167 1011,171.5C 1011.37,172.416 1011.87,173.25 1012.5,174C 1039.83,174.5 1067.16,174.667 1094.5,174.5C 1094.67,158.163 1094.5,141.83 1094,125.5C 1091.55,119.384 1087.05,115.884 1080.5,115C 1054.5,114.667 1028.5,114.333 1002.5,114C 1005.36,107.788 1008.36,101.621 1011.5,95.5C 1039.16,94.3335 1066.83,94.1668 1094.5,95C 1107.48,97.9855 1115.98,105.819 1120,118.5C 1120.5,144.165 1120.67,169.831 1120.5,195.5 Z"/></g>
</svg>
